<?xml version="1.0" encoding="iso-8859-1"?>
<!-- Generator: Adobe Illustrator 19.0.0, SVG Export Plug-In . SVG Version: 6.00 Build 0)  -->
<svg version="1.1" id="Layer_1" xmlns="http://www.w3.org/2000/svg" xmlns:xlink="http://www.w3.org/1999/xlink" x="0px" y="0px"
	 viewBox="0 0 512.004 512.004" style="enable-background:new 0 0 512.004 512.004;" xml:space="preserve">
<g>
	<g>
		<path d="M501.078,48.379l-45.266-45.25c-4.156-4.172-10.922-4.172-15.078,0l-45.266,45.25c-4.156,4.164-4.156,10.922,0,15.086
			c4.172,4.164,10.922,4.164,15.094,0l26.516-26.508v144.344c0,24.492-4.797,48.266-14.25,70.609
			c-9.125,21.594-22.203,40.984-38.875,57.648c-16.656,16.656-36.047,29.734-57.641,38.867
			c-19.078,8.07-39.188,12.734-59.906,13.922V36.418l27.047,27.047c4.156,4.164,10.922,4.164,15.078,0
			c4.172-4.164,4.172-10.922,0-15.086l-45.25-45.25c-4.172-4.172-10.922-4.172-15.078,0l-45.266,45.25
			c-4.172,4.164-4.172,10.922,0,15.086s10.922,4.164,15.094,0l27.047-27.047v325.93c-20.719-1.188-40.844-5.852-59.922-13.922
			c-21.578-9.133-40.984-22.211-57.641-38.867c-16.656-16.664-29.734-36.055-38.875-57.648
			c-9.438-22.344-14.234-46.148-14.234-70.641V36.418l27.047,27.047c4.156,4.164,10.922,4.164,15.078,0
			c4.172-4.164,4.172-10.922,0-15.086l-45.25-45.25c-4.172-4.172-10.922-4.172-15.078,0l-45.266,45.25
			c-4.172,4.164-4.172,10.922,0,15.086s10.922,4.164,15.094,0l27.047-27.047v144.914c0,108.352,85.016,196.844,192,202.391v10.945
			v32h-64c-5.906,0-10.672,4.773-10.672,10.664s4.766,10.672,10.672,10.672h64v53.328c0,5.891,4.766,10.672,10.656,10.672
			s10.672-4.781,10.672-10.672v-53.328h64c5.891,0,10.672-4.781,10.672-10.672s-4.781-10.664-10.672-10.664h-64v-32v-10.945
			c106.969-5.547,192-94.07,192-202.422V35.887l27.578,27.578c4.172,4.164,10.922,4.164,15.094,0
			C505.234,59.301,505.234,52.543,501.078,48.379z"/>
	</g>
</g>
<g>
</g>
<g>
</g>
<g>
</g>
<g>
</g>
<g>
</g>
<g>
</g>
<g>
</g>
<g>
</g>
<g>
</g>
<g>
</g>
<g>
</g>
<g>
</g>
<g>
</g>
<g>
</g>
<g>
</g>
</svg>
