<?xml version="1.0" encoding="iso-8859-1"?>
<!-- Generator: Adobe Illustrator 19.0.0, SVG Export Plug-In . SVG Version: 6.00 Build 0)  -->
<svg version="1.1" id="Layer_1" xmlns="http://www.w3.org/2000/svg" xmlns:xlink="http://www.w3.org/1999/xlink" x="0px" y="0px"
	 viewBox="0 0 512 512" style="enable-background:new 0 0 512 512;" xml:space="preserve">
<g>
	<g>
		<path d="M373.328,490.672H106.672V320h160c88.344,0,160-71.633,160-160s-71.656-160-160-160H95.984
			c-5.875,0-10.656,4.773-10.656,10.664v490.664c0,5.906,4.781,10.672,10.656,10.672h277.344c5.906,0,10.656-4.766,10.656-10.672
			C383.984,495.453,379.234,490.672,373.328,490.672z M106.672,21.336h160c18.719,0,36.875,3.664,53.969,10.883
			c16.5,6.984,31.344,16.984,44.062,29.727c12.75,12.742,22.75,27.578,29.75,44.086c7.219,17.078,10.875,35.242,10.875,53.969
			c0,18.727-3.656,36.891-10.875,53.969c-7,16.508-17,31.344-29.75,44.086c-12.719,12.742-27.562,22.742-44.062,29.727
			c-17.094,7.219-35.25,10.883-53.969,10.883h-160V21.336z"/>
	</g>
</g>
<g>
</g>
<g>
</g>
<g>
</g>
<g>
</g>
<g>
</g>
<g>
</g>
<g>
</g>
<g>
</g>
<g>
</g>
<g>
</g>
<g>
</g>
<g>
</g>
<g>
</g>
<g>
</g>
<g>
</g>
</svg>
