<?xml version="1.0" encoding="iso-8859-1"?>
<!-- Generator: Adobe Illustrator 16.0.0, SVG Export Plug-In . SVG Version: 6.00 Build 0)  -->
<!DOCTYPE svg PUBLIC "-//W3C//DTD SVG 1.1//EN" "http://www.w3.org/Graphics/SVG/1.1/DTD/svg11.dtd">
<svg version="1.1" id="Capa_1" xmlns="http://www.w3.org/2000/svg" xmlns:xlink="http://www.w3.org/1999/xlink" x="0px" y="0px"
	 width="591.669px" height="591.67px" viewBox="0 0 591.669 591.67" style="enable-background:new 0 0 591.669 591.67;"
	 xml:space="preserve">
<g>
	<g>
		<path d="M410.103,246.726c-42.93-11.204-85.142,1.358-122.311,34.488v-77.83H382c21.608,0,39.123-17.515,39.123-39.123
			c0-21.607-17.515-39.123-39.123-39.123h-94.203V39.123C287.797,17.516,270.281,0,248.674,0c-21.608,0-39.124,17.516-39.124,39.123
			v86.019h-94.207c-21.607,0-39.123,17.515-39.123,39.123c0,21.607,17.516,39.123,39.123,39.123h94.207v205.309
			c0,18.598,13.089,34.619,31.31,38.336c18.217,3.713,36.541-5.912,43.815-23.023c7.943-18.678,24.917-53.746,49.339-78.748
			c26.189-26.801,44.692-25.859,56.328-22.828c17.765,4.641,34.387,20.494,42.354,40.404c3.746,9.352,8.556,27.418-1.289,43.33
			c-11.273,18.225-33.085,35.627-61.433,49.014c-11.889,5.613-20.163,16.822-22.023,29.836c-0.828,5.803-6.361,57.859,53.839,99.662
			c6.806,4.721,14.582,6.99,22.281,6.99c12.387,0,24.57-5.867,32.175-16.814c12.326-17.748,7.924-42.125-9.824-54.451
			c-5.614-3.896-9.711-7.65-12.697-11.049c23.146-14.574,47.43-34.859,64.231-62.02c20.392-32.967,23.085-74.367,7.393-113.576
			C488.199,290.937,451.707,257.583,410.103,246.726z"/>
	</g>
</g>
<g>
</g>
<g>
</g>
<g>
</g>
<g>
</g>
<g>
</g>
<g>
</g>
<g>
</g>
<g>
</g>
<g>
</g>
<g>
</g>
<g>
</g>
<g>
</g>
<g>
</g>
<g>
</g>
<g>
</g>
</svg>
