<svg id="Capa_1" enable-background="new 0 0 512 512" height="512" viewBox="0 0 512 512" width="512" xmlns="http://www.w3.org/2000/svg"><path d="m256 0c-141.159 0-256 114.841-256 256s114.841 256 256 256 256-114.841 256-256-114.841-256-256-256zm0 447.733c-105.722 0-191.733-86.011-191.733-191.733s86.011-191.733 191.733-191.733 191.733 86.011 191.733 191.733-86.011 191.733-191.733 191.733z"/><path d="m256 176.733c-43.708 0-79.267 35.559-79.267 79.267s35.559 79.267 79.267 79.267 79.267-35.559 79.267-79.267-35.559-79.267-79.267-79.267z"/></svg>