<?xml version="1.0" encoding="iso-8859-1"?>
<!-- Generator: Adobe Illustrator 19.0.0, SVG Export Plug-In . SVG Version: 6.00 Build 0)  -->
<svg version="1.1" id="Layer_1" xmlns="http://www.w3.org/2000/svg" xmlns:xlink="http://www.w3.org/1999/xlink" x="0px" y="0px"
	 viewBox="0 0 512 512" style="enable-background:new 0 0 512 512;" xml:space="preserve">
<g>
	<g>
		<path d="M480,342.664h-53.328V21.336H480c5.891,0,10.672-4.781,10.672-10.672S485.891,0,480,0h-64
			c-5.891,0-10.672,4.773-10.672,10.664v160.672H266.672V10.664C266.672,4.773,261.891,0,256,0s-10.672,4.773-10.672,10.664v160.672
			H106.672V10.68c0-0.008,0-0.008,0-0.008C106.672,4.773,101.891,0,96,0H32c-5.891,0-10.672,4.773-10.672,10.664
			S26.109,21.336,32,21.336h53.328v321.328H32c-5.891,0-10.672,4.781-10.672,10.672S26.109,364,32,364h64
			c5.891,0,10.672-4.773,10.672-10.664V192.664h138.656v193.57c-29.891,5.07-52.656,31.086-52.656,62.43
			C192.672,483.641,221.016,512,256,512s63.328-28.359,63.328-63.336c0-31.344-22.766-57.359-52.656-62.43v-193.57h138.656v160.672
			c0,5.891,4.781,10.664,10.672,10.664h64c5.891,0,10.672-4.773,10.672-10.664S485.891,342.664,480,342.664z M298,448.664
			c0,23.164-18.844,42.008-42,42.008s-42-18.844-42-42.008c0-19.938,13.969-36.656,32.625-40.93h18.75
			C284.031,412.008,298,428.727,298,448.664z"/>
	</g>
</g>
<g>
</g>
<g>
</g>
<g>
</g>
<g>
</g>
<g>
</g>
<g>
</g>
<g>
</g>
<g>
</g>
<g>
</g>
<g>
</g>
<g>
</g>
<g>
</g>
<g>
</g>
<g>
</g>
<g>
</g>
</svg>
