<?xml version="1.0" encoding="iso-8859-1"?>
<!-- Generator: Adobe Illustrator 16.0.0, SVG Export Plug-In . SVG Version: 6.00 Build 0)  -->
<!DOCTYPE svg PUBLIC "-//W3C//DTD SVG 1.1//EN" "http://www.w3.org/Graphics/SVG/1.1/DTD/svg11.dtd">
<svg version="1.1" id="Capa_1" xmlns="http://www.w3.org/2000/svg" xmlns:xlink="http://www.w3.org/1999/xlink" x="0px" y="0px"
	 width="579.324px" height="579.323px" viewBox="0 0 579.324 579.323" style="enable-background:new 0 0 579.324 579.323;"
	 xml:space="preserve">
<g>
	<g>
		<path d="M524.158,97.806c21.607,0,39.123-17.516,39.123-39.123c0-21.608-17.516-39.123-39.123-39.123
			c-83.118,0-152.641,67.826-168.537,157.651h-25.349V39.123C330.272,17.515,312.756,0,291.149,0
			c-21.608,0-39.123,17.515-39.123,39.123v138.092h-28.328C207.803,87.394,138.279,19.563,55.166,19.563
			c-21.607,0-39.123,17.516-39.123,39.123c0,21.608,17.516,39.123,39.123,39.123c51.673,0,93.714,53.171,93.714,118.528
			s-42.041,118.523-93.714,118.523c-21.607,0-39.123,17.516-39.123,39.124c0,21.607,17.516,39.123,39.123,39.123
			c83.118,0,152.637-67.826,168.533-157.651h28.328v83.864c-48.809,16.394-84.081,62.538-84.081,116.798
			c0,67.937,55.268,123.204,123.204,123.204c67.936,0,123.203-55.268,123.203-123.204c0-54.26-35.271-100.404-84.08-116.798v-83.864
			h25.349c15.896,89.821,85.423,157.651,168.537,157.651c21.607,0,39.123-17.516,39.123-39.123
			c0-21.608-17.516-39.124-39.123-39.124c-51.674,0-93.718-53.17-93.718-118.528C430.44,150.976,472.484,97.806,524.158,97.806z
			 M291.149,501.077c-24.79,0-44.962-20.168-44.962-44.962c0-19.404,12.387-35.933,29.649-42.212
			c4.786-1.742,9.931-2.741,15.312-2.741c5.381,0,10.526,0.999,15.312,2.741c17.262,6.283,29.648,22.808,29.648,42.212
			C336.106,480.909,315.939,501.077,291.149,501.077z"/>
	</g>
</g>
<g>
</g>
<g>
</g>
<g>
</g>
<g>
</g>
<g>
</g>
<g>
</g>
<g>
</g>
<g>
</g>
<g>
</g>
<g>
</g>
<g>
</g>
<g>
</g>
<g>
</g>
<g>
</g>
<g>
</g>
</svg>
